<svg width="12" height="13" viewBox="0 0 12 13" fill="none" xmlns="http://www.w3.org/2000/svg">
<path d="M10.9766 6.50391C10.8125 6.66797 10.5938 6.75 10.375 6.75C10.1289 6.75 9.91016 6.66797 9.74609 6.50391L6.875 3.63281V12C6.875 12.4922 6.46484 12.875 6 12.875C5.5625 12.875 5.125 12.4922 5.125 12V3.63281L2.22656 6.50391C1.89844 6.85938 1.32422 6.85938 0.996094 6.50391C0.640625 6.17578 0.640625 5.60156 0.996094 5.27344L5.37109 0.898438C5.69922 0.542969 6.27344 0.542969 6.60156 0.898438L10.9766 5.27344C11.332 5.60156 11.332 6.17578 10.9766 6.50391Z" fill="white"/>
</svg>
