<svg width="19" height="21" viewBox="0 0 19 21" fill="none" xmlns="http://www.w3.org/2000/svg">
<path d="M5.125 4.875C5.125 2.49219 7.07812 0.5 9.5 0.5C11.8828 0.5 13.875 2.49219 13.875 4.875V6.75H16.375C17.3906 6.75 18.25 7.60938 18.25 8.625V16.75C18.25 18.8203 16.5703 20.5 14.5 20.5H4.5C2.39062 20.5 0.75 18.8203 0.75 16.75V8.625C0.75 7.60938 1.57031 6.75 2.625 6.75H5.125V4.875ZM7 6.75H12V4.875C12 3.50781 10.8672 2.375 9.5 2.375C8.09375 2.375 7 3.50781 7 4.875V6.75ZM6.0625 10.5C6.57031 10.5 7 10.1094 7 9.5625C7 9.05469 6.57031 8.625 6.0625 8.625C5.51562 8.625 5.125 9.05469 5.125 9.5625C5.125 10.1094 5.51562 10.5 6.0625 10.5ZM12.9375 8.625C12.3906 8.625 12 9.05469 12 9.5625C12 10.1094 12.3906 10.5 12.9375 10.5C13.4453 10.5 13.875 10.1094 13.875 9.5625C13.875 9.05469 13.4453 8.625 12.9375 8.625Z" fill="#1E2832"/>
</svg>
