<svg width="19" height="19" viewBox="0 0 19 19" fill="none" xmlns="http://www.w3.org/2000/svg">
<path d="M4.65625 19H1.02344V7.32031H4.65625V19ZM2.82031 5.75781C1.6875 5.75781 0.75 4.78125 0.75 3.60938C0.75 2.00781 2.46875 0.992188 3.875 1.8125C4.53906 2.16406 4.92969 2.86719 4.92969 3.60938C4.92969 4.78125 3.99219 5.75781 2.82031 5.75781ZM18.2109 19H14.6172V13.3359C14.6172 11.9688 14.5781 10.25 12.7031 10.25C10.8281 10.25 10.5547 11.6953 10.5547 13.2188V19H6.92188V7.32031H10.3984V8.92188H10.4375C10.9453 8.02344 12.1172 7.04688 13.875 7.04688C17.5469 7.04688 18.25 9.46875 18.25 12.5938V19H18.2109Z" fill="#1E2832"/>
</svg>
